<svg width="135" height="135" viewBox="0 0 135 135" fill="none" xmlns="http://www.w3.org/2000/svg">
<circle cx="67.5" cy="67.5" r="67.5" fill="#154B65"/>
<path d="M49.8125 38.125C52.7292 38.125 55.5625 38.625 58.3125 39.625C61.1458 40.625 63.8542 42.0833 66.4375 44C66.8542 44.4167 67.3125 44.8333 67.8125 45.25C68.2292 44.8333 68.6875 44.4167 69.1875 44C71.7708 42.0833 74.4375 40.625 77.1875 39.625C80.0208 38.625 82.8542 38.125 85.6875 38.125C88.6042 38.125 91.4375 38.625 94.1875 39.625C97.0208 40.625 99.6875 42.125 102.188 44.125C104.771 46.0417 107.021 48.625 108.938 51.875C110.938 55.125 111.938 59 111.938 63.5V90.125C111.438 95.125 108.688 97.8333 103.688 98.25C101.354 98.25 99.3125 97.5 97.5625 96C95.8958 94.4167 95.0625 92.4583 95.0625 90.125V64.5C95.0625 62.5 94.6875 60.8333 93.9375 59.5C93.1875 58.0833 92.3542 57 91.4375 56.25C90.5208 55.4167 89.5625 54.8333 88.5625 54.5C87.5625 54.0833 86.5625 53.875 85.5625 53.875C84.5625 53.875 83.5625 54.0833 82.5625 54.5C81.6458 54.8333 80.7292 55.4167 79.8125 56.25C78.8958 57 78.0625 58.0833 77.3125 59.5C76.5625 60.8333 76.1458 62.5 76.0625 64.5V90.125C75.5625 95.125 72.8125 97.8333 67.8125 98.25C65.4792 98.25 63.4375 97.5 61.6875 96C60.0208 94.4167 59.1875 92.4583 59.1875 90.125V64.5C59.1875 62.5 58.8125 60.8333 58.0625 59.5C57.3125 58.0833 56.4792 57 55.5625 56.25C54.6458 55.4167 53.6875 54.8333 52.6875 54.5C51.6875 54.0833 50.6875 53.875 49.6875 53.875C48.6875 53.875 47.6875 54.0833 46.6875 54.5C45.7708 54.8333 44.8542 55.4167 43.9375 56.25C43.0208 57 42.1875 58.0833 41.4375 59.5C40.6875 60.8333 40.2708 62.5 40.1875 64.5V90.125C39.7708 95.125 37.0625 97.8333 32.0625 98.25C29.7292 98.25 27.6875 97.5 25.9375 96C24.2708 94.4167 23.4375 92.4583 23.4375 90.125V63.5C23.6042 59 24.6458 55.125 26.5625 51.875C28.4792 48.625 30.7292 46.0417 33.3125 44.125C35.8958 42.125 38.5625 40.625 41.3125 39.625C44.1458 38.625 46.9792 38.125 49.8125 38.125Z" fill="#17A24C"/>
</svg>
