<svg width="93" height="81" viewBox="0 0 93 81" fill="none" xmlns="http://www.w3.org/2000/svg">
<path d="M5.83567 56.6174C5.71228 56.5834 5.58196 56.5142 5.44472 56.41C5.33833 56.3143 5.31065 56.1739 5.36167 55.9888C5.45522 55.6495 5.72802 55.4425 6.18009 55.368C6.67151 55.2711 7.05604 55.2609 7.33368 55.3375C7.48793 55.38 7.61825 55.4491 7.72464 55.5448C7.86187 55.649 7.90923 55.7783 7.86671 55.9325C7.77317 56.2718 7.48069 56.49 6.98927 56.5869C6.49785 56.6837 6.11332 56.6939 5.83567 56.6174ZM5.74199 67.7944C5.12618 68.2221 4.5162 68.5685 3.91206 68.8334C3.34727 69.0761 2.84893 69.1379 2.41704 69.0188C2.016 68.9083 1.71226 68.6254 1.50581 68.1701C1.30787 67.6841 1.22424 66.9639 1.25491 66.0098C1.3006 65.7236 1.36488 65.3098 1.44775 64.7684C1.56147 64.2354 1.69486 63.6913 1.84794 63.136C2.00951 62.5499 2.17801 61.9989 2.35343 61.4829C2.5682 60.9446 2.73353 60.5255 2.84942 60.2255C2.97915 59.9957 3.17909 59.7521 3.44922 59.4946C3.75021 59.2457 4.05495 59.1637 4.36344 59.2488C4.64109 59.3253 4.73739 59.5178 4.65235 59.8263C4.64384 59.8571 4.61991 59.8837 4.58056 59.9061C4.57206 59.9369 4.56355 59.9678 4.55505 59.9986C4.23606 60.6742 3.94792 61.3582 3.69063 62.0507C3.44184 62.7124 3.21965 63.398 3.02405 64.1075C2.68389 65.3415 2.52982 66.2616 2.56184 66.868C2.62472 67.4828 2.84125 67.8412 3.21144 67.9432C3.48909 68.0198 3.84702 67.9857 4.28524 67.8409C4.73197 67.6653 5.24624 67.4254 5.82803 67.121C6.33112 66.8614 6.83154 66.5512 7.3293 66.1906C7.82705 65.8299 8.38967 65.3543 9.01715 64.7638C9.12137 64.6266 9.23518 64.5749 9.35858 64.609C9.57452 64.6685 9.56285 64.8312 9.32356 65.0972C8.879 65.5058 8.34457 65.9393 7.72025 66.3979C7.09593 66.8565 6.43651 67.322 5.74199 67.7944ZM11.7536 70.8594C11.5296 70.859 11.3378 70.7786 11.1781 70.6183C11.0184 70.426 10.9389 70.2019 10.9393 69.9459C10.9397 69.7539 10.988 69.594 11.0842 69.4661C11.3413 68.8906 11.5666 68.187 11.7602 67.3554C11.9537 66.5238 12.0993 65.676 12.197 64.8122C12.2946 63.9484 12.3439 63.2125 12.3451 62.6045C12.3462 61.9965 12.2835 61.3404 12.1568 60.6361C12.0621 59.932 11.7431 59.3714 11.1999 58.9543C11.1039 58.9542 11.056 58.8901 11.0563 58.7621C11.0564 58.6981 11.0885 58.6661 11.1525 58.6663C11.2485 58.6664 11.3284 58.6986 11.3923 58.7627C12.1274 59.2121 12.6382 59.901 12.9244 60.8296C13.2427 61.7262 13.4009 62.7025 13.3989 63.7585C13.3975 64.5265 13.332 65.3104 13.2025 66.1101C13.0731 66.8779 12.9117 67.6136 12.7184 68.3172C13.4555 67.7426 14.241 66.9441 15.0749 65.9216C15.9088 64.8992 16.6305 63.9725 17.2401 63.1417C17.4326 62.886 17.657 62.6464 17.9134 62.4229C18.1699 62.1674 18.4742 62.04 18.8262 62.0406C19.0502 62.0411 19.1619 62.1853 19.1613 62.4733C19.1613 62.5053 19.1452 62.5692 19.113 62.6652C19.1129 62.7292 19.0967 62.8091 19.0645 62.9051C19 63.193 18.8709 63.7687 18.6773 64.6324C18.5157 65.4641 18.4342 66.2959 18.4326 67.1279C18.4313 67.8319 18.5262 68.4401 18.7172 68.9524C18.9082 69.4648 19.2598 69.7215 19.7718 69.7224C19.9958 69.7228 20.2359 69.6753 20.492 69.5798C20.7483 69.4523 20.9406 69.2926 21.0689 69.1009C21.1009 69.1009 21.117 69.0849 21.117 69.0529C21.1491 69.021 21.1811 69.0051 21.2131 69.0051C21.2771 69.0052 21.3091 69.0373 21.3089 69.1013C21.3083 69.4213 21.0839 69.6609 20.6356 69.82C20.1873 69.9792 19.8351 70.0585 19.5791 70.0581C18.7471 70.0565 18.1398 69.6874 17.7572 68.9506C17.4066 68.214 17.2321 67.3977 17.2338 66.5017C17.2343 66.2137 17.2509 65.9257 17.2834 65.6378C17.316 65.3498 17.3645 65.0779 17.4289 64.822L17.4291 64.726C17.4294 64.598 17.3495 64.5339 17.1895 64.5336C17.0295 64.5333 16.8533 64.6289 16.6609 64.8206C16.4044 65.1081 16.0677 65.5075 15.6507 66.0187C15.2338 66.4979 14.8008 67.0091 14.3518 67.5523C13.9348 68.0955 13.5659 68.5908 13.245 69.0382C12.9243 69.4536 12.7157 69.7252 12.6195 69.853C12.5553 69.9809 12.4589 70.1887 12.3303 70.4765C12.2019 70.7322 12.0096 70.8599 11.7536 70.8594ZM45.9719 71.9487C44.8649 71.0588 43.7448 69.8114 42.6114 68.2064C41.4933 66.6295 40.4659 64.9849 39.529 63.2724C38.9607 62.2337 38.4435 61.2217 37.9775 60.2365C37.4961 59.2232 37.0901 58.3146 36.7596 57.5105C36.4254 57.7663 36.182 58.1548 36.0294 58.676C35.9049 59.1818 35.866 59.6774 35.9126 60.1625C35.9332 60.3336 35.8874 60.4499 35.7751 60.5113C35.6067 60.6035 35.3845 60.5974 35.1085 60.493C34.8326 60.3886 34.6829 60.2152 34.6596 59.9726C34.6385 59.4005 34.7577 58.7517 35.0173 58.0261C35.3049 57.2851 35.6704 56.5197 36.1138 55.73C35.7961 54.8825 35.5628 54.1894 35.414 53.6508C35.2652 53.1121 35.088 52.3883 34.8826 51.4794C34.5691 49.973 34.3859 48.5047 34.333 47.0746C34.2928 45.6011 34.4304 44.2857 34.7456 43.1283C35.0608 41.971 35.6382 41.1263 36.4777 40.594L36.5198 40.5709C36.8006 40.4174 36.987 40.4248 37.0792 40.5932C37.1713 40.7617 37.0783 40.9584 36.8003 41.1835C36.073 41.6544 35.6233 42.4658 35.4511 43.6178C35.3069 44.7545 35.3251 46.0212 35.5057 47.4179C35.6709 48.7866 35.8768 50.0965 36.1236 51.3475C36.2263 51.802 36.3214 52.2424 36.4087 52.6688C36.5088 53.0518 36.6807 53.6326 36.9243 54.4112C37.276 53.854 37.7745 53.1983 38.4196 52.4441C39.0929 51.6745 39.8376 50.9023 40.6539 50.1274C41.4982 49.3372 42.3606 48.6466 43.2409 48.0555L43.3251 48.0094C43.5778 47.8712 43.7348 47.8582 43.7963 47.9705C43.8577 48.0828 43.7775 48.2362 43.5555 48.4305C42.7186 49.0343 41.8729 49.7888 41.0185 50.6939C40.1488 51.571 39.3863 52.4441 38.731 53.3133C38.0604 54.1544 37.5787 54.8739 37.2857 55.4719C37.3191 55.5995 37.3678 55.7552 37.4319 55.939C37.4806 56.0948 37.5203 56.2007 37.551 56.2568C38.0945 55.8501 38.7494 55.7471 39.5159 55.9479C40.2669 56.1206 41.0617 56.5065 41.9001 57.1056C42.7232 57.6766 43.5502 58.3549 44.3812 59.1405C45.1969 59.8979 45.9627 60.6644 46.6788 61.4399C47.845 62.7715 48.7891 64.0971 49.511 65.4165C50.1407 66.5675 50.5519 67.6192 50.7447 68.5715C51.271 70.8004 50.9447 72.2374 49.7656 72.8825C49.3445 73.1128 48.8019 73.1544 48.1377 73.0071C47.5169 72.8725 46.795 72.5197 45.9719 71.9487ZM41.4541 46.7898C41.3419 46.8512 41.2002 46.8923 41.0291 46.9129C40.8861 46.9182 40.7685 46.8366 40.6763 46.6682C40.5074 46.3594 40.5593 46.0209 40.8321 45.6528C41.1176 45.2413 41.3867 44.9664 41.6394 44.8282C41.7797 44.7514 41.9214 44.7103 42.0644 44.705C42.2355 44.6844 42.3595 44.7442 42.4363 44.8846C42.6052 45.1934 42.5469 45.5536 42.2614 45.9651C41.9759 46.3767 41.7068 46.6515 41.4541 46.7898ZM50.5038 56.8304C50.3591 57.5661 50.1621 58.2393 49.9126 58.85C49.6758 59.4172 49.3608 59.8084 48.9678 60.0234C48.6029 60.2231 48.1879 60.2313 47.7228 60.048C47.2424 59.8366 46.6813 59.3776 46.0394 58.671C45.8731 58.4337 45.6313 58.0918 45.314 57.6453C45.0249 57.1834 44.7421 56.6998 44.4656 56.1945C44.1738 55.6611 43.9114 55.1481 43.6783 54.6555C43.458 54.1194 43.2851 53.7034 43.1596 53.4073C43.0929 53.152 43.0669 52.8379 43.0818 52.465C43.1247 52.0767 43.2865 51.8058 43.5673 51.6522C43.8199 51.514 44.023 51.5853 44.1766 51.866C44.192 51.8941 44.1933 51.9298 44.1806 51.9733C44.196 52.0013 44.2113 52.0294 44.2267 52.0575C44.4676 52.7646 44.7367 53.4564 45.0338 54.1328C45.3155 54.7811 45.633 55.4281 45.9863 56.0738C46.6006 57.1967 47.1303 57.9648 47.5752 58.3779C48.0481 58.7757 48.453 58.8825 48.7899 58.6982C49.0426 58.5599 49.2759 58.2864 49.4899 57.8775C49.6886 57.4405 49.8909 56.9103 50.097 56.2869C50.2777 55.7504 50.4212 55.1794 50.5277 54.574C50.6342 53.9686 50.7074 53.2355 50.7471 52.3748C50.7265 52.2037 50.7723 52.0875 50.8846 52.0261C51.0811 51.9185 51.186 52.0435 51.1992 52.4011C51.1541 53.1188 51.0429 53.9821 50.8654 54.9911C50.8044 55.2798 50.7512 55.5825 50.7056 55.8992C50.6447 56.1879 50.5774 56.4983 50.5038 56.8304ZM45.4373 70.2715C46.2709 71.1285 47.0148 71.6882 47.669 71.9504C48.3231 72.2126 48.8467 72.2362 49.2397 72.0212C49.7169 71.7601 49.9768 71.2349 50.0192 70.4457C50.105 69.6692 49.911 68.6811 49.437 67.4814C49.3242 67.1419 49.1666 66.7539 48.9643 66.3174C48.762 65.881 48.5226 65.4101 48.2462 64.9048C47.9851 64.4275 47.6805 63.9376 47.3326 63.4349C47.0127 62.9169 46.643 62.4078 46.2235 61.9078C45.5636 61.1016 44.8475 60.3262 44.0753 59.5814C43.2877 58.8086 42.4901 58.1507 41.6824 57.6077C40.9027 57.0494 40.1731 56.6826 39.4936 56.5072C38.7987 56.3038 38.2216 56.3824 37.7624 56.7431C38.1008 57.7617 38.5363 58.8912 39.0691 60.1317C39.6146 61.3288 40.2176 62.5309 40.878 63.7381C41.5845 65.0294 42.3241 66.248 43.0969 67.3937C43.8976 68.524 44.6778 69.4833 45.4373 70.2715ZM56.8304 55.2931C56.1792 55.3935 55.5787 55.2723 55.0289 54.9294C54.4791 54.5864 53.9982 54.1496 53.5861 53.6188C53.2722 53.2143 52.9933 52.8029 52.7495 52.3845C52.531 51.9465 52.3545 51.5365 52.2202 51.1547C52.0522 50.6774 51.9067 50.203 51.7837 49.7314C51.6606 49.2597 51.5502 48.7783 51.4524 48.2871C51.3939 47.8464 51.3467 47.3159 51.3108 46.6956C51.2805 46.0304 51.3372 45.399 51.4809 44.8013C51.605 44.1784 51.8692 43.7099 52.2737 43.396C52.5011 43.2193 52.7553 43.1031 53.036 43.0472C53.4121 42.9578 53.7685 43.0255 54.1051 43.2503C54.4473 43.4302 54.7558 43.6971 55.0305 44.051C55.3445 44.4555 55.6079 44.8991 55.8207 45.3821C56.014 45.8397 56.1806 46.237 56.3206 46.5739C56.3795 46.6498 56.4033 46.7326 56.392 46.8224C56.4199 46.9627 56.4127 47.1101 56.3705 47.2644C56.3339 47.3738 56.2454 47.4425 56.1051 47.4704C55.7795 47.5207 55.548 47.4573 55.4106 47.2804C55.2929 47.1287 55.2131 46.9476 55.1712 46.7371C55.1545 46.5069 55.107 46.3413 55.0285 46.2402C54.9557 46.0942 54.8632 45.9229 54.7511 45.7263C54.6194 45.5045 54.4751 45.2924 54.3181 45.0902C54.1022 44.8122 53.8681 44.5888 53.6157 44.4202C53.3632 44.2516 53.1233 44.2556 52.8958 44.4322C52.643 44.6284 52.5051 44.9987 52.4822 45.5432C52.4649 46.0427 52.4896 46.5704 52.5565 47.1262C52.629 47.637 52.6637 47.9949 52.6607 48.1998C52.7249 48.5956 52.8395 49.1345 53.0045 49.8167C53.1498 50.4736 53.3597 51.1614 53.634 51.8801C53.9141 52.554 54.2601 53.1563 54.6722 53.6871C54.9469 54.041 55.2652 54.3205 55.6271 54.5258C55.9693 54.7057 56.3383 54.7636 56.7341 54.6994C57.0344 54.6688 57.3363 54.5358 57.6396 54.3003C57.9177 54.0844 58.1536 53.8405 58.3475 53.5684C58.5471 53.2515 58.7214 52.9541 58.8704 52.6764C59.0194 52.3987 59.1431 52.1406 59.2416 51.9021C59.3653 51.644 59.4764 51.3958 59.5748 51.1573C59.6227 50.9581 59.7225 50.7996 59.8742 50.6818C59.9753 50.6034 60.0553 50.602 60.1141 50.6779C60.173 50.7537 60.1321 50.988 59.9914 51.3808C59.7662 52.0822 59.4892 52.7429 59.1602 53.3629C58.8117 53.9576 58.4099 54.4315 57.9549 54.7847C57.6263 55.0398 57.2515 55.2093 56.8304 55.2931ZM66.4792 49.2634C66.3632 49.3737 66.1696 49.4254 65.8981 49.4187C65.1986 49.3334 64.5813 49.1256 64.0463 48.7954C63.4892 48.442 62.9791 48.0219 62.5159 47.535C62.2954 47.3032 62.0974 47.0719 61.9221 46.8412C61.7479 46.5652 61.5725 46.3345 61.3961 46.149C61.2196 45.9636 61.0316 45.7891 60.832 45.6257C60.6103 45.4391 60.3996 45.2641 60.1999 45.1007C59.8018 44.7286 59.3926 44.345 58.9724 43.9497C58.5522 43.5545 58.1204 43.1702 57.677 42.797C57.6108 42.7275 57.5441 42.6805 57.4768 42.6562C57.4106 42.5867 57.3445 42.5171 57.2783 42.4476C56.6828 41.8216 56.5159 41.2516 56.7777 40.7375C57.0395 40.2235 57.3697 39.6885 57.7683 39.1325C57.4719 38.3103 57.1871 37.477 56.9139 36.6328C56.6418 35.7432 56.426 34.8664 56.2664 34.0024C56.142 33.5466 56.2768 33.1312 56.6709 32.7562C56.8796 32.5577 57.0721 32.5512 57.2486 32.7367C57.3589 32.8526 57.4344 33.0016 57.4751 33.1837C57.517 33.3205 57.5583 33.48 57.599 33.6621C57.8333 35.1618 58.1354 36.6632 58.5054 38.1663C58.6931 37.8994 58.8797 37.6777 59.0651 37.5012C59.2517 37.2795 59.4505 37.0242 59.6614 36.7352C59.8259 36.4903 60.0131 36.246 60.2229 36.0022C60.4327 35.7585 60.6419 35.5373 60.8505 35.3388C60.8969 35.2947 61.0586 35.1629 61.3357 34.9435C61.6128 34.724 61.7955 34.6607 61.8837 34.7534C61.9498 34.823 61.936 34.9245 61.8421 35.058C61.7494 35.1462 61.6909 35.2239 61.6666 35.2912C61.1531 35.9122 60.6507 36.5448 60.1594 37.1889C59.6912 37.811 59.2335 38.4674 58.7862 39.1579C58.9559 39.6148 59.1669 40.2312 59.4192 41.007C59.6947 41.7608 59.9817 42.5036 60.2804 43.2353C60.6022 43.945 60.9054 44.4958 61.1899 44.8877L61.3884 45.0963C62.1383 45.8846 62.9015 46.594 63.678 47.2244C64.4325 47.8317 65.3498 48.262 66.4299 48.5152C66.452 48.5384 66.463 48.55 66.463 48.55C66.5082 48.5511 66.5419 48.5633 66.5639 48.5865C66.6742 48.7024 66.705 48.8277 66.6564 48.9623C66.631 49.0748 66.5719 49.1752 66.4792 49.2634ZM60.0879 44.1472C59.7186 43.5269 59.395 42.8851 59.1173 42.2218C58.8175 41.5353 58.5177 40.8488 58.218 40.1623C57.9143 40.5395 57.715 40.8175 57.62 40.9962C57.5262 41.1296 57.6314 41.4491 57.9357 41.9547C57.9555 42.0683 58.0315 42.1947 58.1639 42.3338C58.4727 42.6584 58.7931 42.972 59.125 43.2745C59.435 43.5538 59.7559 43.8447 60.0879 44.1472ZM62.0682 32.583C61.9858 32.681 61.8686 32.7705 61.7166 32.8518C61.5852 32.9085 61.4461 32.875 61.2992 32.7514C61.0298 32.5248 60.9556 32.1905 61.0766 31.7486C61.1937 31.2616 61.3449 30.9079 61.5303 30.6875C61.6334 30.5651 61.7506 30.4755 61.8819 30.4188C62.0339 30.3376 62.1711 30.3485 62.2936 30.4515C62.5629 30.6781 62.639 31.035 62.522 31.522C62.4049 32.009 62.2536 32.3627 62.0682 32.583ZM72.186 37.3333C72.3176 38.0714 72.3778 38.7703 72.3664 39.4299C72.3512 40.0444 72.1993 40.523 71.9109 40.8658C71.643 41.1841 71.2592 41.342 70.7593 41.3396C70.235 41.3166 69.5457 41.0921 68.6914 40.6659C68.4505 40.505 68.1012 40.2739 67.6438 39.9726C67.207 39.6468 66.7682 39.2985 66.3275 38.9276C65.8623 38.5361 65.4319 38.153 65.0362 37.7782C64.6367 37.3584 64.3249 37.0332 64.1006 36.8027C63.9459 36.5889 63.808 36.3055 63.6868 35.9526C63.5862 35.5752 63.6389 35.264 63.8449 35.0192C64.0304 34.7988 64.2455 34.7917 64.4903 34.9977C64.5148 35.0183 64.529 35.0512 64.5329 35.0962C64.5574 35.1168 64.5819 35.1374 64.6063 35.1581C65.0871 35.7299 65.5884 36.2772 66.1103 36.8001C66.6078 37.3023 67.1381 37.7904 67.7012 38.2643C68.6806 39.0885 69.4524 39.6125 70.0168 39.8365C70.6017 40.036 71.0178 39.9888 71.265 39.695C71.4505 39.4746 71.5689 39.1351 71.6203 38.6765C71.6471 38.1972 71.6437 37.6298 71.61 36.974C71.584 36.4085 71.5111 35.8243 71.391 35.2214C71.271 34.6186 71.0737 33.9088 70.799 33.0921C70.7178 32.9401 70.7184 32.8152 70.8008 32.7172C70.945 32.5458 71.0881 32.6244 71.2299 32.9528C71.4156 33.5273 71.5865 34.194 71.7427 34.9527C71.8988 35.7114 72.0466 36.505 72.186 37.3333ZM91.2603 16.7263C91.0591 17.0905 90.6869 17.4332 90.1438 17.7547C89.6006 18.0761 89.0711 18.2405 88.5551 18.248C88.1107 18.2584 87.6692 18.1972 87.2306 18.0646C86.8356 17.9195 86.456 17.7463 86.0918 17.5452C85.3636 17.1428 84.6817 16.6565 84.0463 16.0861C83.3984 15.4722 82.763 14.9019 82.1401 14.375C82.031 14.2416 81.8099 14.0463 81.4767 13.7891C81.131 13.4884 80.8181 13.2607 80.538 13.106C80.2298 12.9358 80.0371 12.9207 79.9597 13.0607C79.8669 13.2288 79.9097 13.5815 80.0881 14.1187C80.2666 14.656 80.5246 15.347 80.8623 16.1916C81.2 17.0362 81.5189 17.8156 81.819 18.5297C82.119 19.2439 82.3299 19.6894 82.4515 19.8663C82.5732 20.0431 82.7025 20.206 82.8396 20.3549C82.9487 20.4883 82.9834 20.6902 82.9437 20.9607C82.9282 20.9887 82.9267 21.0245 82.9392 21.068C82.9392 21.068 82.9315 21.082 82.916 21.11C82.8077 21.306 82.6308 21.4277 82.3854 21.4749C82.14 21.5221 81.9192 21.4915 81.7232 21.3832C81.5551 21.2904 81.4383 21.171 81.3726 21.0251C80.9923 20.5224 80.4844 19.9859 79.849 19.4156C79.2135 18.8452 78.5409 18.3091 77.8311 17.8072C77.1212 17.3054 76.5002 16.9075 75.968 16.6135C73.8393 15.4374 72.3339 15.6477 71.4519 17.2443C71.1269 17.8325 70.8786 18.6458 70.707 19.6844C71.982 18.6339 73.4317 18.5574 75.0563 19.4549C75.9806 19.9656 76.7377 20.7128 77.3275 21.6967C77.9047 22.6371 78.3051 23.6991 78.5286 24.8828C78.7675 26.0384 78.8277 27.1867 78.7092 28.3277C78.5627 29.4532 78.2419 30.4641 77.7467 31.3604C77.4063 31.9766 76.9553 32.4952 76.3937 32.9161C75.8041 33.3216 75.1452 33.3231 74.417 32.9208C74.3329 32.8744 74.2489 32.828 74.1649 32.7816C74.0963 32.7071 74.02 32.6467 73.936 32.6003C73.3707 32.7632 72.7939 32.6822 72.2057 32.3573C71.5895 32.0169 71.0164 31.4992 70.4864 30.8042C69.9718 30.0812 69.5988 29.3999 69.3672 28.7602C68.9418 27.6112 68.715 26.3343 68.6868 24.9295C68.6461 23.4812 68.9352 22.1968 69.5541 21.0764L69.8095 20.6143L69.952 19.7608C70.111 18.6788 70.3762 17.8016 70.7476 17.1294C71.4285 15.897 72.4215 15.2574 73.7268 15.2108C75.0476 15.1362 76.5063 15.5399 78.1028 16.4219C78.663 16.7314 79.2343 17.1201 79.8166 17.5881C80.3864 18.0125 80.832 18.4963 81.1535 19.0395C80.978 18.4307 80.8275 17.9089 80.7022 17.4741C80.5488 17.0237 80.3689 16.5222 80.1625 15.9695C79.9405 15.4447 79.7341 14.892 79.5431 14.3112C79.3521 13.7304 79.1442 13.2134 78.9194 12.7602C78.7726 12.4963 78.6506 12.1547 78.5533 11.7353C78.4279 11.3005 78.4426 10.943 78.5973 10.6629C78.7057 10.4669 78.8859 10.4385 79.138 10.5777C79.222 10.6242 79.3326 10.7218 79.4697 10.8707C79.6628 11.0505 80.1394 11.4783 80.8993 12.154C81.6313 12.8143 82.5111 13.538 83.5386 14.325C84.5536 15.0685 85.5653 15.7188 86.5737 16.2759C86.7978 16.3997 87.0218 16.5235 87.2459 16.6473C87.4855 16.7431 87.711 16.8311 87.9226 16.9114C88.5417 17.1804 89.1262 17.2474 89.676 17.1124C90.2693 16.9649 90.6666 16.7091 90.8677 16.345C90.9915 16.1209 91.039 15.8364 91.0102 15.4915C90.9969 15.1185 90.8952 14.8064 90.705 14.5551C90.6924 14.5116 90.6659 14.4604 90.6253 14.4014C90.6128 14.3579 90.6143 14.3222 90.6297 14.2942C90.6452 14.2662 90.695 14.2754 90.779 14.3218C91.2272 14.5694 91.4395 14.9791 91.416 15.5511C91.436 16.1105 91.384 16.5023 91.2603 16.7263ZM77.2425 31.0819C77.8615 29.9615 78.1786 28.6926 78.1939 27.2753C78.2092 25.8579 77.9278 24.5143 77.3498 23.2445C76.7438 21.9592 75.8665 20.9993 74.7181 20.3648C73.9339 19.9316 73.1828 19.736 72.4649 19.7781C71.747 19.8202 71.1246 20.1527 70.5977 20.7756C70.536 22.2769 70.7028 23.7949 71.0981 25.3293C71.4934 26.8638 71.9892 28.2162 72.5856 29.3866C73.1975 30.5289 73.8101 31.306 74.4234 31.718C74.5259 31.6649 74.695 31.5572 74.9308 31.3951C75.1541 31.1894 75.2938 31.102 75.3498 31.133C75.4338 31.1794 75.4449 31.2586 75.383 31.3707C75.3211 31.4827 75.2452 31.587 75.1553 31.6836C75.0654 31.7802 74.9755 31.8767 74.8856 31.9733C75.4178 32.2673 75.8733 32.3361 76.2521 32.1798C76.6184 31.98 76.9485 31.6141 77.2425 31.0819ZM72.7584 31.4562C72.4311 31.056 72.0426 30.4027 71.5929 29.4962C71.1431 28.5897 70.735 27.5416 70.3686 26.3521C69.9895 25.1191 69.7767 23.8499 69.7301 22.5446C69.431 23.5492 69.3715 24.6497 69.5515 25.8459C69.7189 26.9986 70.0821 28.0949 70.6409 29.1348C71.1872 30.1312 71.893 30.905 72.7584 31.4562Z" fill="#17A24C"/>
</svg>
