<svg width="304" height="304" viewBox="0 0 304 304" fill="none" xmlns="http://www.w3.org/2000/svg">
<path d="M258.16 76.8562C229.968 40.5188 174.417 45.0591 152.001 83.963C129.584 45.059 74.0339 40.5188 45.8411 76.8562L41.9225 81.9067C18.079 112.638 21.5217 156.464 49.8715 183.094L138.161 266.033C139.48 267.273 140.922 268.628 142.282 269.676C143.846 270.88 146.032 272.275 148.952 272.848C150.965 273.243 153.037 273.243 155.05 272.848C157.969 272.275 160.155 270.88 161.72 269.676C163.08 268.628 164.522 267.273 165.842 266.033L254.129 183.094C282.48 156.464 285.923 112.638 262.079 81.9066L258.16 76.8562Z" fill="#FF5C51"/>
</svg>
