<svg width="24" height="24" viewBox="0 0 24 24" fill="none" xmlns="http://www.w3.org/2000/svg">
<path d="M14.0118 2.80754C13.6213 2.41702 12.9881 2.41702 12.5976 2.80754C12.2071 3.19807 12.2071 3.83123 12.5976 4.22176L19.3763 11.0005H2.20898C1.6567 11.0005 1.20898 11.4482 1.20898 12.0005C1.20898 12.5528 1.6567 13.0005 2.20898 13.0005H19.3752L12.5976 19.7781C12.2071 20.1686 12.2071 20.8018 12.5976 21.1923C12.9881 21.5828 13.6213 21.5828 14.0118 21.1923L22.4704 12.7337C22.6672 12.5511 22.7904 12.2902 22.7904 12.0005C22.7904 11.8116 22.738 11.6349 22.647 11.4842C22.6059 11.416 22.5559 11.3517 22.4971 11.2928L14.0118 2.80754Z" fill="#FD5B4F"/>
</svg>
