<svg width="304" height="304" viewBox="0 0 304 304" fill="none" xmlns="http://www.w3.org/2000/svg">
<path d="M98.2652 77.8745C86.6961 73.1104 77.0551 69.1401 69.5648 67.2223C62.3092 65.3646 52.9574 64.3164 46.077 71.2959C39.1966 78.2752 40.3782 87.611 42.3394 94.8394C44.3639 102.302 48.4715 111.885 53.4005 123.385L61.5928 142.5H126.667C131.913 142.5 136.167 146.753 136.167 152C136.167 157.247 131.913 161.5 126.667 161.5H61.5929L53.4005 180.615C48.4715 192.115 44.3639 201.699 42.3394 209.161C40.3782 216.388 39.1966 225.725 46.077 232.704C52.9574 239.684 62.3092 238.635 69.5648 236.778C77.0551 234.86 86.6961 230.889 98.265 226.125L243.196 166.448C245.8 165.377 248.62 164.217 250.725 162.982C252.624 161.867 257.683 158.577 257.683 152C257.683 145.423 252.624 142.133 250.725 141.018C248.62 139.783 245.8 138.623 243.196 137.552L98.2652 77.8745Z" fill="#81BBD1"/>
</svg>
