<svg width="304" height="267" viewBox="0 0 304 267" fill="none" xmlns="http://www.w3.org/2000/svg">
<path fill-rule="evenodd" clip-rule="evenodd" d="M262.036 44.0467C237.172 11.9923 187.263 17.3682 169.791 53.9824C162.65 68.9497 141.349 68.9497 134.208 53.9824C116.737 17.3682 66.828 11.9925 41.9639 44.0467L37.2335 50.1451C15.7016 77.9038 18.8105 117.489 44.4118 141.545L150.728 241.439C151.203 241.886 151.622 242.279 152 242.632C152.378 242.279 152.797 241.886 153.272 241.439L259.588 141.545C285.189 117.489 288.297 77.9038 266.765 50.1451L262.036 44.0467ZM152 38.5646C179.061 -8.41176 246.123 -13.8942 280.158 29.983L284.889 36.0814C313.673 73.1898 309.517 126.109 275.292 158.265L168.709 258.413C167.115 259.911 165.375 261.547 163.733 262.812C161.844 264.267 159.205 265.951 155.68 266.642C153.251 267.119 150.749 267.119 148.319 266.642C144.794 265.951 142.155 264.267 140.267 262.812C138.624 261.547 136.884 259.911 135.291 258.413L28.7073 158.265C-5.51714 126.109 -9.6732 73.1899 19.1111 36.0816L23.8417 29.983C57.8767 -13.8942 124.939 -8.41191 152 38.5646Z" fill="#FF5C51"/>
</svg>
